<?xml version="1.0" encoding="utf-8" ?>
<svg baseProfile="tiny" height="100%" version="1.2" width="100%" xmlns="http://www.w3.org/2000/svg" xmlns:ev="http://www.w3.org/2001/xml-events" xmlns:xlink="http://www.w3.org/1999/xlink"><defs /><text fill="blue" x="0.0" y="0.0" /><text fill="blue" x="268.162" y="788.783">Correction</text><text fill="blue" x="172.56899999999996" y="709.729">
</text><text fill="blue" x="172.56899999999996" y="709.729">Test</text><text fill="blue" x="281.98999999999995" y="698.724">Nom et pr´ enom :
</text><text fill="blue" x="281.98999999999995" y="698.724">. . . . . . . . . . . . . . . . . . . . . . . . . . . . . . . . . . . . . . . . . . . . . . . .</text><text fill="blue" x="281.98999999999995" y="698.724" /><text fill="blue" x="281.98999999999995" y="698.724" /><text fill="blue" x="281.98999999999995" y="698.724" /><text fill="blue" x="281.98999999999995" y="698.724" /><text fill="blue" x="0.0" y="0.0" /><text fill="blue" x="85.039" y="674.625">
</text><text fill="blue" x="85.039" y="674.625">Illustration of</text><text fill="blue" x="148.994" y="674.625"> amc2moodle</text><text fill="blue" x="204.618" y="674.625"> capabilities. All these questions can be converted</text><text fill="blue" x="421.832" y="674.625"> automatically</text><text fill="blue" x="484.08299999999997" y="674.625"> to</text><text fill="blue" x="85.03899999999999" y="662.669">
</text><text fill="blue" x="85.03899999999999" y="662.669">moodle</text><text fill="blue" x="119.74199999999999" y="662.669"> with the same layout.</text><text fill="blue" x="119.75399999999999" y="636.7669999999999">
</text><text fill="blue" x="119.75399999999999" y="636.7669999999999">Multiple choice tests using AMC Latex Format</text><text fill="blue" x="85.03899999999999" y="618.8889999999999">
</text><text fill="blue" x="85.03899999999999" y="618.8889999999999">Question 1</text><text fill="blue" x="85.03899999999999" y="606.9339999999999">
</text><text fill="blue" x="85.03899999999999" y="606.9339999999999">What is 8 + 2?</text><text fill="blue" x="85.03899999999999" y="606.9339999999999" /><rect fill-opacity="0.05" height="32.946" stroke="red" width="217.822" x="0" y="0" /><text fill="blue" x="0.0" y="0.0" /><text fill="blue" x="102.583" y="583.842">
</text><text fill="blue" x="102.583" y="567.597">0 1 2 3 4 5 6 7 8 9
</text><text fill="blue" x="102.583" y="567.597">0 1 2 3 4 5 6 7 8 9</text><text fill="blue" x="102.583" y="567.597" /><rect fill-opacity="0.05" height="2.835" stroke="red" width="223.492" x="0" y="0" /><text fill="blue" x="102.583" y="567.597" /><rect fill-opacity="0.05" height="35.78" stroke="red" width="2.835" x="0" y="0" /><text fill="blue" x="102.583" y="567.597" /><rect fill-opacity="0.05" height="35.78" stroke="red" width="2.835" x="0" y="0" /><text fill="blue" x="102.583" y="567.597" /><rect fill-opacity="0.05" height="2.835" stroke="red" width="223.492" x="0" y="0" /><text fill="blue" x="0.0" y="0.0" /><text fill="blue" x="85.039" y="532.841">
</text><text fill="blue" x="85.039" y="532.841">Question 2</text><text fill="blue" x="85.039" y="520.886">
</text><text fill="blue" x="85.039" y="520.886">What is the first derivative of</text><text fill="blue" x="217.764" y="520.886"> f</text><text fill="blue" x="226.48100000000002" y="520.886">= sin (8</text><text fill="blue" x="259.745" y="520.886"> x</text><text fill="blue" x="109.94600000000003" y="500.96099999999996">)?
</text><text fill="blue" x="109.94600000000003" y="500.96099999999996">8 cos (8</text><text fill="blue" x="140.44300000000004" y="500.96099999999996"> x</text><text fill="blue" x="109.94600000000003" y="485.02">) + 8
</text><text fill="blue" x="109.94600000000003" y="485.02">64 cos (8</text><text fill="blue" x="145.42400000000004" y="485.02"> x</text><text fill="blue" x="109.94600000000003" y="469.08">)
</text><text fill="blue" x="109.94600000000003" y="469.08">cos (8</text><text fill="blue" x="133.80100000000002" y="469.08"> x</text><text fill="blue" x="109.946" y="453.14">)
</text><text fill="blue" x="109.946" y="453.14">8 cos (8</text><text fill="blue" x="140.44299999999998" y="453.14"> x</text><text fill="blue" x="146.13699999999997" y="453.14">)</text><text fill="blue" x="85.03899999999997" y="433.215">
</text><text fill="blue" x="85.03899999999997" y="433.215">Explication :</text><text fill="blue" x="153.36299999999997" y="433.215"> Use the chain rule:</text><text fill="blue" x="238.68199999999996" y="433.215"> f</text><text fill="blue" x="244.63199999999995" y="433.215">(</text><text fill="blue" x="248.50599999999994" y="433.215">x</text><text fill="blue" x="254.19999999999993" y="433.215">) =</text><text fill="blue" x="271.35799999999995" y="433.215">g</text><text fill="blue" x="276.4669999999999" y="433.215">(</text><text fill="blue" x="280.3419999999999" y="433.215">h</text><text fill="blue" x="286.08199999999994" y="433.215">(</text><text fill="blue" x="289.95599999999996" y="433.215">x</text><text fill="blue" x="295.65" y="433.215">)), where</text><text fill="blue" x="338.296" y="433.215"> h</text><text fill="blue" x="344.036" y="433.215">(</text><text fill="blue" x="347.91" y="433.215">x</text><text fill="blue" x="353.60400000000004" y="433.215">) = 8</text><text fill="blue" x="375.74300000000005" y="433.215"> x</text><text fill="blue" x="384.75800000000004" y="433.215">and</text><text fill="blue" x="404.13000000000005" y="433.215"> g</text><text fill="blue" x="409.23900000000003" y="433.215">(</text><text fill="blue" x="413.11300000000006" y="433.215">y</text><text fill="blue" x="418.3550000000001" y="433.215">) = sin(</text><text fill="blue" x="451.62000000000006" y="433.215"> y</text><text fill="blue" x="456.86100000000005" y="433.215">).</text></svg>